<?xml version="1.0" encoding="utf-8"?>
<!-- Generator: Adobe Illustrator 18.0.0, SVG Export Plug-In . SVG Version: 6.00 Build 0)  -->
<!DOCTYPE svg PUBLIC "-//W3C//DTD SVG 1.1//EN" "http://www.w3.org/Graphics/SVG/1.1/DTD/svg11.dtd">
<svg version="1.1" id="Layer_1" xmlns="http://www.w3.org/2000/svg" xmlns:xlink="http://www.w3.org/1999/xlink" x="0px" y="0px"
	 viewBox="0 0 128 128" enable-background="new 0 0 128 128" xml:space="preserve">
<g id="Layer_2">
	<rect fill="#F5F5F5" width="128" height="128"/>
</g>
<g id="Layer_1_1_">
	<circle fill="none" stroke="#E6E7E8" stroke-width="0.5" stroke-miterlimit="10" cx="64" cy="64" r="63.5"/>
</g>
<g id="Layer_2_1_">
	<polygon fill="#A0A0A0" points="49.1,76.2 47.3,76.2 42.5,71.5 42.1,61.3 49.1,61.3 	"/>
	<rect x="54.6" y="56.1" fill="#A0A0A0" width="6.9" height="18.1"/>
	<rect x="66.8" y="46.7" fill="#F0BC5E" width="7.3" height="18.5"/>
	<rect x="79.6" y="40.2" fill="#F0BC5E" width="6.8" height="22.2"/>
</g>
<g>
	<g>
		<path fill="#B7B7B7" d="M101,80.2C101,80.2,101,80.2,101,80.2L101,80.2l-4.9-0.7c-0.7-0.1-1.2-0.7-1.1-1.4c0-0.3,0.2-0.6,0.5-0.8
			l1.6-1.2h3.3c0.7,0,1.3-0.6,1.3-1.3v-45c0-0.7-0.6-1.3-1.3-1.3H28c-0.7,0-1.3,0.6-1.3,1.3v45c0,0.7,0.6,1.3,1.3,1.3h3.2l-1.6,1.6
			c-0.4,0.4-0.5,1.1-0.1,1.6l2.4,3.5l-4.1,0.9c-0.6,0.1-1,0.6-1,1.2v5c0,0.6,0.4,1.1,1,1.2l4.1,0.9l-2.4,3.5
			c-0.3,0.5-0.3,1.2,0.1,1.6l3.8,3.8c0.4,0.4,1.1,0.5,1.6,0.1l3.5-2.4l0.9,4.1c0.1,0.6,0.6,1,1.2,1h5c0.6,0,1.1-0.4,1.2-1l0.9-4.1
			l3.5,2.4c0.5,0.3,1.2,0.3,1.6-0.1l3.8-3.8c0.4-0.4,0.5-1.1,0.1-1.6l-2.4-3.5l4.1-0.9c0.6-0.1,1-0.6,1-1.2v-5c0-0.6-0.4-1.1-1-1.2
			l-4.1-0.9l2.4-3.5c0.3-0.5,0.3-1.2-0.1-1.6l-1.6-1.6h5.2l-1,7c-0.1,0.7,0.4,1.3,1.1,1.4c0,0,0,0,0,0l4.9,0.7
			c0.7,0.1,1.2,0.7,1.1,1.4c0,0.3-0.2,0.6-0.5,0.8l-3.9,2.9c-0.6,0.4-0.7,1.2-0.3,1.8l4.5,6c0.4,0.6,1.2,0.7,1.8,0.3l3.9-2.9
			c0.6-0.4,1.3-0.3,1.8,0.2c0.2,0.3,0.3,0.6,0.2,0.9l-0.7,4.9c-0.1,0.7,0.4,1.3,1.1,1.4c0,0,0,0,0,0l7.4,1.1c0.1,0,0.1,0,0.2,0
			c0.6,0,1.2-0.5,1.2-1.1l0.7-4.9c0.1-0.7,0.7-1.2,1.4-1.1c0.3,0,0.6,0.2,0.8,0.5l2.9,3.9c0.4,0.6,1.2,0.7,1.8,0.3l6-4.5
			c0.6-0.4,0.7-1.2,0.3-1.8l-2.9-3.9c-0.4-0.6-0.3-1.3,0.2-1.8c0.3-0.2,0.6-0.3,0.9-0.2l4.9,0.7c0.7,0.1,1.3-0.4,1.4-1.1
			c0,0,0,0,0,0l1.1-7.4C102.2,80.9,101.7,80.3,101,80.2z M56.7,85.8v3l-3.1,0.7c-1.4,0.3-2.2,1.6-1.9,3c0.1,0.3,0.2,0.6,0.4,0.9
			l1.8,2.6l-2.3,2.3L49,96.4c-1.1-0.8-2.7-0.5-3.5,0.6c-0.2,0.3-0.3,0.6-0.4,0.9l-0.7,3.1h-3L40.8,98c-0.3-1.4-1.6-2.2-3-1.9
			c-0.3,0.1-0.6,0.2-0.9,0.4l-2.6,1.8l-2.3-2.3l1.8-2.6c0.8-1.1,0.5-2.7-0.6-3.5c-0.3-0.2-0.6-0.3-0.9-0.4l-3.1-0.7v-3l3.1-0.7
			c1.4-0.3,2.2-1.6,1.9-3c-0.1-0.3-0.2-0.6-0.4-0.9l-1.8-2.6l2.3-2.3l2.6,1.8c1.1,0.8,2.7,0.5,3.5-0.6c0.2-0.3,0.3-0.6,0.4-0.9
			l0.7-3.1h3l0.7,3.1c0.3,1.4,1.6,2.2,3,1.9c0.3-0.1,0.6-0.2,0.9-0.4l2.6-1.8l2.3,2.3l-1.8,2.6c-0.8,1.1-0.5,2.7,0.6,3.5
			c0.3,0.2,0.6,0.3,0.9,0.4L56.7,85.8z M48.3,75.7l-0.8,0.5l-0.9-4.1c-0.1-0.6-0.6-1-1.2-1H43v-8.8h5v12.5
			C48,75.1,48.1,75.4,48.3,75.7z M54.2,54.8c-0.7,0-1.3,0.6-1.3,1.3v17.5h-2.5V61.1c0-0.7-0.6-1.3-1.3-1.3h-7.5
			c-0.7,0-1.3,0.6-1.3,1.3v10c-0.6,0-1.1,0.4-1.2,1l-0.9,4.1l-3.5-2.4c-0.2-0.1-0.5-0.2-0.7-0.2v0h-5V31h70v40.9l-4-5.3
			c-0.4-0.6-1.2-0.7-1.8-0.3l-3.9,2.9c-0.6,0.4-1.3,0.3-1.8-0.2c-0.2-0.3-0.3-0.6-0.2-0.9l0.7-4.9c0-0.3-0.1-0.7-0.3-1V39.8
			c0-0.7-0.6-1.3-1.3-1.3h-7.5c-0.7,0-1.3,0.6-1.3,1.3v24.7l-0.3,2.2c-0.1,0.7-0.7,1.2-1.4,1.1c-0.3,0-0.6-0.2-0.8-0.4V46.1
			c0-0.7-0.6-1.3-1.3-1.3h-7.5c-0.7,0-1.3,0.6-1.3,1.3v21l-0.8,0.6c-0.6,0.4-0.7,1.2-0.3,1.8l2.9,3.9c0.4,0.6,0.3,1.3-0.2,1.8
			c-0.3,0.2-0.6,0.3-0.9,0.2L63,74.8V56.1c0-0.7-0.6-1.3-1.3-1.3H54.2z M85.5,41.1v20.5l-5-0.7V41.1H85.5z M73,47.3V64l-0.5-0.7
			c-0.4-0.6-1.2-0.7-1.8-0.3L68,65.1V47.3C68,47.3,73,47.3,73,47.3z M60.5,73.6h-5V57.3h5V73.6z M98.7,87.5l-3.6-0.5
			c-2.1-0.3-4,1.1-4.2,3.2c-0.1,1,0.1,2,0.7,2.8l2.2,2.9l-4,3l-2.2-2.9c-1.2-1.7-3.6-2-5.3-0.8c-0.8,0.6-1.3,1.5-1.5,2.5l-0.5,3.6
			l-5-0.7l0.5-3.6c0.3-2.1-1.1-4-3.2-4.2c-1-0.1-2,0.1-2.8,0.7L67,95.6l-3-4l2.9-2.2c1.7-1.2,2-3.6,0.8-5.3
			c-0.6-0.8-1.5-1.3-2.5-1.5l-3.6-0.5l0.7-5l3.6,0.5c2.1,0.3,4-1.1,4.2-3.2c0.1-1-0.1-2-0.7-2.8l-2.2-2.9l4-3l2.2,2.9
			c1.2,1.7,3.6,2,5.3,0.8c0.8-0.6,1.3-1.5,1.5-2.5l0.5-3.6l5,0.7l-0.5,3.6c-0.3,2.1,1.1,4,3.2,4.2c1,0.1,2-0.1,2.8-0.7l2.9-2.2l3,4
			l-2.9,2.2c-1.7,1.2-2,3.6-0.8,5.3c0.6,0.8,1.5,1.3,2.5,1.5l3.6,0.5L98.7,87.5z"/>
	</g>
</g>
<g>
	<g>
		<path fill="#B7B7B7" d="M43,79.8c-4.1,0-7.5,3.4-7.5,7.5c0,4.1,3.4,7.5,7.5,7.5s7.5-3.4,7.5-7.5C50.5,83.2,47.1,79.8,43,79.8z
			 M43,92.3c-2.8,0-5-2.2-5-5c0-2.8,2.2-5,5-5s5,2.2,5,5C48,90.1,45.8,92.3,43,92.3z"/>
	</g>
</g>
<g>
	<g>
		<path fill="#B7B7B7" d="M80.5,72.3c-5.5,0-10,4.5-10,10s4.5,10,10,10s10-4.5,10-10C90.5,76.8,86,72.3,80.5,72.3z M80.5,89.8
			c-4.1,0-7.5-3.4-7.5-7.5c0-4.1,3.4-7.5,7.5-7.5c4.1,0,7.5,3.4,7.5,7.5C88,86.5,84.7,89.8,80.5,89.8z"/>
	</g>
</g>
</svg>
