<?xml version="1.0" encoding="utf-8"?>
<!-- Generator: Adobe Illustrator 18.0.0, SVG Export Plug-In . SVG Version: 6.00 Build 0)  -->
<!DOCTYPE svg PUBLIC "-//W3C//DTD SVG 1.1//EN" "http://www.w3.org/Graphics/SVG/1.1/DTD/svg11.dtd">
<svg version="1.1" id="Layer_1" xmlns="http://www.w3.org/2000/svg" xmlns:xlink="http://www.w3.org/1999/xlink" x="0px" y="0px"
	 viewBox="0 0 128 128" enable-background="new 0 0 128 128" xml:space="preserve">
<g id="Layer_2">
	<rect fill="#F5F5F5" width="128" height="128"/>
</g>
<g id="Layer_1_1_">
	<circle fill="none" stroke="#E6E7E8" stroke-width="0.5" stroke-miterlimit="10" cx="64" cy="64" r="63.5"/>
</g>
<path fill="#A0A0A0" d="M91.6,83.2c4.5,4.2,6.9,9,5.4,10.7s-6.5-0.4-11-4.6c-4.5-4.2-9.4-7.8-5.4-11.7C85.1,73.3,87.1,79,91.6,83.2z
	"/>
<g>
	<g>
		<path fill="#F0BC5E" d="M71.4,52.2c-0.8,0-1.4,0.6-1.4,1.4s0.6,1.4,1.4,1.4c0.8,0,1.4-0.6,1.4-1.4S72.2,52.2,71.4,52.2z"/>
	</g>
</g>
<g>
	<g>
		<path fill="#B7B7B7" d="M97.6,87L79.2,68.7c3-4.5,4.6-9.7,4.6-15.2C83.8,38.4,71.5,26,56.3,26S28.8,38.4,28.8,53.5
			S41.1,81,56.3,81c5.4,0,10.7-1.6,15.2-4.6l5.1,5.1c0,0,0,0,0,0l13.3,13.3c1,1,2.4,1.6,3.9,1.6c1.5,0,2.8-0.6,3.9-1.6
			c1-1,1.6-2.4,1.6-3.9C99.2,89.5,98.6,88.1,97.6,87z M70.8,73.6C70.8,73.6,70.8,73.6,70.8,73.6c-4.2,3.1-9.3,4.7-14.5,4.7
			c-13.6,0-24.7-11.1-24.7-24.7s11.1-24.7,24.7-24.7S81,39.9,81,53.5c0,5.2-1.6,10.3-4.7,14.5C74.8,70.2,72.9,72,70.8,73.6z
			 M73.7,74.8c1.4-1.2,2.7-2.5,3.9-3.9l3.9,3.9c-1.2,1.4-2.5,2.7-3.9,3.9L73.7,74.8z M95.6,92.9c-0.5,0.5-1.2,0.8-1.9,0.8
			s-1.4-0.3-1.9-0.8L79.5,80.7c1.4-1.2,2.7-2.5,3.9-3.9L95.6,89c0.5,0.5,0.8,1.2,0.8,1.9C96.4,91.7,96.2,92.4,95.6,92.9z"/>
	</g>
</g>
<g>
	<g>
		<path fill="#B7B7B7" d="M56.3,31.5c-12.1,0-22,9.9-22,22s9.9,22,22,22s22-9.9,22-22S68.4,31.5,56.3,31.5z M56.3,72.8
			c-10.6,0-19.2-8.6-19.2-19.2s8.6-19.2,19.2-19.2s19.2,8.6,19.2,19.2S66.9,72.8,56.3,72.8z"/>
	</g>
</g>
<g>
	<g>
		<path fill="#F0BC5E" d="M71.7,47.6c-1.2-3.1-3.2-5.7-6-7.6c-2.8-1.9-6-3-9.4-3c-0.8,0-1.4,0.6-1.4,1.4s0.6,1.4,1.4,1.4
			c5.7,0,10.8,3.5,12.8,8.8c0.2,0.5,0.7,0.9,1.3,0.9c0.2,0,0.3,0,0.5-0.1C71.6,49.1,72,48.3,71.7,47.6z"/>
	</g>
</g>
</svg>
