<?xml version="1.0" encoding="utf-8"?>
<!-- Generator: Adobe Illustrator 18.0.0, SVG Export Plug-In . SVG Version: 6.00 Build 0)  -->
<!DOCTYPE svg PUBLIC "-//W3C//DTD SVG 1.1//EN" "http://www.w3.org/Graphics/SVG/1.1/DTD/svg11.dtd">
<svg version="1.1" id="Layer_1" xmlns="http://www.w3.org/2000/svg" xmlns:xlink="http://www.w3.org/1999/xlink" x="0px" y="0px"
	 viewBox="0 0 128 128" enable-background="new 0 0 128 128" xml:space="preserve">
<g id="Layer_2">
	<rect fill="#F5F5F5" width="128" height="128"/>
</g>
<g id="Layer_1_1_">
	<circle fill="none" stroke="#E6E7E8" stroke-width="0.5" stroke-miterlimit="10" cx="64" cy="64" r="63.5"/>
</g>
<g id="Layer_2_2_">
	<rect x="30.3" y="76.6" fill="#F0BC5E" width="10.8" height="17.4"/>
</g>
<g>
	<g>
		<g>
			<path fill="#B7B7B7" d="M94,77.1l-17.8,6.3c-0.3,0.1-0.5,0.1-0.8,0.1H75c0.4-1.3,0.2-2.6-0.5-3.8l-0.1-0.2c-1.1-1.9-3-3-5.1-3h-5
				c-1.7,0-3.4-0.6-4.7-1.8c-1.7-1.5-4-2.3-6.2-2.3h-0.6c-0.3,0-6.3,0.1-10.1,3.3c-0.4-0.6-1.2-1-1.9-1h-9.3c-1.3,0-2.3,1-2.3,2.3
				v16.3c0,1.3,1,2.3,2.3,2.3h9.3c0.7,0,1.4-0.3,1.8-0.9c2.1,1.4,4.6,2.2,7.2,2H75c1.5,0,2.9-0.4,4.1-1.2l18.1-11.6
				c0.9-0.6,1.5-1.5,1.7-2.6c0.2-1.1,0-2.2-0.7-3.1C97.3,77.1,95.5,76.6,94,77.1z M40.7,93.5h-9.3V77.2h9.3L40.7,93.5L40.7,93.5z
				 M96.6,81.2c-0.1,0.4-0.3,0.8-0.7,1.1l-18,11.6C77,94.3,76,94.6,75,94.6H49.7c-4.5,0-6.2-1.8-6.7-2.3V78.8
				c2.8-3.9,9.6-3.9,9.7-3.9h0.6c1.7,0,3.4,0.6,4.7,1.7c1.7,1.5,4,2.3,6.2,2.3h5c1.3,0,2.5,0.7,3.1,1.8l0.1,0.2
				c0.5,0.8,0.4,1.8-0.1,2.6h-5.7c-2,0-3.9,0.6-5.5,1.7l-0.7,0.5c-0.3,0.2-0.5,0.6-0.5,1.1c0,0.4,0.3,0.8,0.7,1
				c0.4,0.2,0.8,0.1,1.2-0.1l0.7-0.5c1.2-0.9,2.7-1.3,4.1-1.3h8.6c0.5,0,1.1-0.1,1.6-0.3l17.8-6.2c0.6-0.2,1.3,0,1.6,0.5
				C96.6,80.2,96.7,80.7,96.6,81.2z"/>
			<path fill="#A0A0A0" d="M34.8,90c0.3,0,0.6-0.1,0.8-0.3c0.1-0.1,0.2-0.2,0.2-0.4C36,89.1,36,89,36,88.8c0-0.3-0.1-0.6-0.3-0.8
				c-0.5-0.4-1.2-0.4-1.7,0c-0.3,0.3-0.4,0.8-0.3,1.3C33.9,89.7,34.4,90,34.8,90z"/>
			<path fill="#A0A0A0" d="M78,41c1.9,0,3.5-1.6,3.5-3.5c0-1.9-1.6-3.5-3.5-3.5s-3.5,1.6-3.5,3.5C74.5,39.4,76.1,41,78,41z M78,36.3
				c0.6,0,1.2,0.5,1.2,1.2s-0.5,1.2-1.2,1.2c-0.6,0-1.2-0.5-1.2-1.2C76.8,36.9,77.4,36.3,78,36.3z"/>
			<path fill="#A0A0A0" d="M73.3,62h9.3c0.3,0,0.6-0.1,0.8-0.3c0.2-0.2,0.3-0.5,0.3-0.8v-4.7c0-0.3-0.1-0.6-0.3-0.8
				C83.3,55.1,83,55,82.7,55h-1.2V44.5c0-0.3-0.1-0.6-0.3-0.8c-0.2-0.2-0.5-0.3-0.8-0.3h-7c-0.3,0-0.6,0.1-0.8,0.3
				c-0.2,0.2-0.3,0.5-0.3,0.8v4.7c0,0.3,0.1,0.6,0.3,0.8c0.2,0.2,0.5,0.3,0.8,0.3h1.2V55h-1.2c-0.3,0-0.6,0.1-0.8,0.3
				c-0.2,0.2-0.3,0.5-0.3,0.8v4.7c0,0.3,0.1,0.6,0.3,0.8C72.7,61.9,73,62,73.3,62z M74.5,57.3h1.2c0.3,0,0.6-0.1,0.8-0.3
				c0.2-0.2,0.3-0.5,0.3-0.8v-7c0-0.3-0.1-0.6-0.3-0.8C76.3,48.1,76,48,75.7,48h-1.2v-2.3h4.7v10.5c0,0.3,0.1,0.6,0.3,0.8
				c0.2,0.2,0.5,0.3,0.8,0.3h1.2v2.3h-7C74.5,59.7,74.5,57.3,74.5,57.3z"/>
			<path fill="#B7B7B7" d="M65.2,64.6v6.7c0,0.4,0.3,0.9,0.7,1c0.4,0.2,0.9,0.1,1.2-0.1l5.1-4.1c7.9,2.3,16.4-0.3,21.7-6.5
				s6.6-15,3.2-22.4C93.7,31.8,86.2,27,78,27c-9,0-17,5.7-19.9,14.2C55.2,49.7,58.1,59.1,65.2,64.6z M61.4,39.5
				c4.2-8.2,13.7-12.1,22.4-9.2s14.1,11.6,12.6,20.7C95,60,87.2,66.7,78,66.7c-1.9,0-3.9-0.3-5.7-0.9c-0.4-0.1-0.8,0-1.1,0.2
				l-3.7,2.9V64c0-0.4-0.2-0.7-0.5-0.9C59.6,57.7,57.2,47.7,61.4,39.5z"/>
		</g>
	</g>
</g>
</svg>
