<?xml version="1.0" encoding="utf-8"?>
<!-- Generator: Adobe Illustrator 18.0.0, SVG Export Plug-In . SVG Version: 6.00 Build 0)  -->
<!DOCTYPE svg PUBLIC "-//W3C//DTD SVG 1.1//EN" "http://www.w3.org/Graphics/SVG/1.1/DTD/svg11.dtd">
<svg version="1.1" id="Layer_1" xmlns="http://www.w3.org/2000/svg" xmlns:xlink="http://www.w3.org/1999/xlink" x="0px" y="0px"
	 viewBox="0 0 128 128" enable-background="new 0 0 128 128" xml:space="preserve">
<g id="Layer_2">
	<rect fill="#F5F5F5" width="128" height="128"/>
</g>
<g id="Layer_1_1_">
	<circle fill="none" stroke="#E6E7E8" stroke-width="0.5" stroke-miterlimit="10" cx="64" cy="64" r="63.5"/>
	<g>
		<path fill="#F0BC5E" d="M71.2,88.8L64,82.9l-7.2,5.8l2.9,2.9l-1.4,8.5h11.5l-1.4-8.5L71.2,88.8z"/>
		<path fill="#F0BC5E" d="M65.8,22.1c-5.4,0-10.3,2-14,5.8l-1.5,1.5c-4.6,1.1-8,5.4-8,10.2v15.8h1.4c0-3.2,2.6-5.8,5.8-5.8v-5.8
			c0,0,5.8,1.4,14.5,1.4c8.8,0,14.5-1.4,14.5-1.4v5.8c3.2,0,5.8,2.6,5.8,5.8h1.4V42.2C85.8,31.1,76.9,22.1,65.8,22.1z"/>
		<path fill="#A0A0A0" d="M58.3,51.1c0,0.8-0.6,1.4-1.4,1.4s-1.4-0.6-1.4-1.4c0-0.8,0.6-1.4,1.4-1.4C57.5,49.7,58.3,50.3,58.3,51.1z
			"/>
		<path fill="#A0A0A0" d="M72.8,51.1c0,0.8-0.6,1.4-1.4,1.4S70,51.9,70,51.1c0-0.8,0.6-1.4,1.4-1.4C72.2,49.7,72.8,50.3,72.8,51.1z"
			/>
		<path fill="#A0A0A0" d="M64,64.2c-1.5,0-2.9-1.2-2.9-2.9h-2.9c0,3.2,2.6,5.8,5.8,5.8s5.8-2.6,5.8-5.8h-2.9
			C66.9,62.8,65.7,64.2,64,64.2z"/>
		<path fill="#B7B7B7" d="M78.9,64.2c0.2-0.5,0.3-1.1,0.5-1.5c3.5-0.5,6.5-3.4,6.5-7.2c0-3.5-2.5-6.5-5.8-7.1V42l-1.8,0.5
			c0,0-5.7,1.4-14.2,1.4s-14.2-1.4-14.2-1.4L48,42v6.3c-3.2,0.6-5.8,3.5-5.8,7.1c0,3.7,2.8,6.8,6.5,7.2c1.1,3.8,3.4,6.9,6.6,9.1v2.9
			l-14.8,4.9c-4.2,1.4-6.9,5.2-6.9,9.7v12.6h60.9V89.2c0-4.3-2.8-8.3-6.9-9.7l-14.8-4.9V72l0,0c2.6-2.3,5.2-5.4,5.7-7.1 M80,58.3
			v-6.9c1.7,0.6,2.9,2.2,2.9,4.2c0,1.8-1.2,3.5-2.9,4.2C80,59.1,80,58.8,80,58.3z M45.2,55.4c0-1.8,1.2-3.5,2.9-4.2v6.9
			c0,0.5,0,0.8,0,1.2C46.5,58.9,45.2,57.4,45.2,55.4z M56.5,77.4l5.5,5.5l-5.8,4.9l-3.1-9.2L56.5,77.4z M58.3,75.1v-2
			c1.8,0.8,3.7,1.1,5.8,1.1c2,0,4-0.5,5.8-1.1v2l-5.8,5.8L58.3,75.1z M86.6,82.3c2.9,0.9,4.9,3.7,4.9,6.9v9.7h-55v-9.7
			c0-3.1,2-5.8,4.9-6.9l8.8-2.9l4.5,13.2l9.4-7.8l9.4,7.8L78,79.4L86.6,82.3z M75.1,78.6L72,87.9L66.2,83l5.5-5.5L75.1,78.6z
			 M64,71.4c-7.2,0-13.1-5.8-13.1-13.1V45.7c2.5,0.5,7.1,1.1,13.1,1.1s10.6-0.6,13.1-1.1v12.8C77.1,65.5,71.2,71.4,64,71.4z
			 M74.9,70c0.9-0.9,1.7-1.8,2.5-2.9L74.9,70z"/>
	</g>
</g>
</svg>
