<?xml version="1.0" encoding="utf-8"?>
<!-- Generator: Adobe Illustrator 18.0.0, SVG Export Plug-In . SVG Version: 6.00 Build 0)  -->
<!DOCTYPE svg PUBLIC "-//W3C//DTD SVG 1.1//EN" "http://www.w3.org/Graphics/SVG/1.1/DTD/svg11.dtd">
<svg version="1.1" id="Layer_1" xmlns="http://www.w3.org/2000/svg" xmlns:xlink="http://www.w3.org/1999/xlink" x="0px" y="0px"
	 viewBox="0 0 128 128" enable-background="new 0 0 128 128" xml:space="preserve">
<g id="Layer_2">
	<rect fill="#F5F5F5" width="128" height="128"/>
</g>
<g id="Layer_1_1_">
	<circle fill="none" stroke="#E6E7E8" stroke-width="0.5" stroke-miterlimit="10" cx="64" cy="64" r="63.5"/>
</g>
<g>
	<g>
		<g>
			<path fill="#A0A0A0" d="M33.2,66.5c0.8,0,1.4-0.6,1.4-1.4c0-8.9,4-17.4,11-22.9c0.6-0.4,0.7-1.3,0.3-1.9c0,0-0.1-0.1-0.1-0.1
				c-0.5-0.6-1.4-0.7-2-0.2c-7.6,6.1-12,15.3-12,25.1C31.8,65.9,32.4,66.5,33.2,66.5z"/>
			<path fill="#A0A0A0" d="M73.4,93L73.4,93c-6.1,2-12.6,2-18.7,0c-0.7-0.2-1.5,0.2-1.8,0.9c0,0,0,0,0,0c-0.2,0.8,0.2,1.5,0.9,1.8
				c3.3,1.1,6.7,1.6,10.1,1.6c3.5,0,7-0.6,10.3-1.7c0.7-0.4,1-1.2,0.6-1.9C74.6,93.1,74,92.8,73.4,93z"/>
			<path fill="#A0A0A0" d="M80.9,41.1C80.9,41.1,81,41.1,80.9,41.1c7.8,5.5,12.4,14.5,12.4,24c0,0.8,0.6,1.4,1.4,1.4
				s1.4-0.6,1.4-1.4c0-10.5-5.1-20.3-13.6-26.3c-0.7-0.4-1.5-0.2-2,0.4C80.1,39.8,80.3,40.7,80.9,41.1z"/>
		</g>
	</g>
</g>
<g>
	<path fill="#F0BC5E" d="M66.8,43.4L64,41l-2.9,2.3l1.2,1.2l-0.6,3.4h4.6l-0.6-3.4L66.8,43.4z"/>
	<path fill="#F0BC5E" d="M64.7,16.8c-2.2,0-4.1,0.8-5.6,2.3l-0.6,0.6c-1.8,0.4-3.2,2.2-3.2,4.1V30h0.6c0-1.3,1-2.3,2.3-2.3v-2.3
		c0,0,2.3,0.6,5.8,0.6c3.5,0,5.8-0.6,5.8-0.6v2.3c1.3,0,2.3,1,2.3,2.3h0.6v-5.3C72.7,20.4,69.1,16.8,64.7,16.8z"/>
	<path fill="#A0A0A0" d="M61.7,28.3c0,0.3-0.2,0.6-0.6,0.6s-0.6-0.2-0.6-0.6s0.2-0.6,0.6-0.6C61.4,27.8,61.7,28,61.7,28.3z"/>
	<path fill="#A0A0A0" d="M67.5,28.3c0,0.3-0.2,0.6-0.6,0.6s-0.6-0.2-0.6-0.6s0.2-0.6,0.6-0.6C67.2,27.8,67.5,28,67.5,28.3z"/>
	<path fill="#A0A0A0" d="M64,33.6c-0.6,0-1.2-0.5-1.2-1.2h-1.2c0,1.3,1,2.3,2.3,2.3c1.3,0,2.3-1,2.3-2.3h-1.2
		C65.1,33,64.7,33.6,64,33.6z"/>
	<path fill="#B7B7B7" d="M69.9,33.6c0.1-0.2,0.1-0.4,0.2-0.6c1.4-0.2,2.6-1.4,2.6-2.9c0-1.4-1-2.6-2.3-2.8v-2.6l-0.7,0.2
		c0,0-2.3,0.6-5.7,0.6c-3.4,0-5.7-0.6-5.7-0.6l-0.8-0.2v2.5c-1.3,0.2-2.3,1.4-2.3,2.8c0,1.5,1.1,2.7,2.6,2.9
		c0.4,1.5,1.4,2.7,2.6,3.6v1.2l-5.9,2c-1.7,0.6-2.7,2.1-2.7,3.9v5h24.3v-5c0-1.7-1.1-3.3-2.7-3.9l-5.9-2v-1l0,0
		c1-0.9,2.1-2.2,2.3-2.8 M70.4,31.2v-2.7c0.7,0.2,1.2,0.9,1.2,1.7c0,0.7-0.5,1.4-1.2,1.7C70.4,31.5,70.4,31.4,70.4,31.2z M56.5,30
		c0-0.7,0.5-1.4,1.2-1.7v2.7c0,0.2,0,0.3,0,0.5C57,31.4,56.5,30.8,56.5,30z M61,38.8l2.2,2.2l-2.3,2l-1.2-3.7L61,38.8z M61.7,37.9
		v-0.8c0.7,0.3,1.5,0.4,2.3,0.4c0.8,0,1.6-0.2,2.3-0.4v0.8L64,40.2L61.7,37.9z M73,40.8c1.2,0.4,2,1.5,2,2.7v3.9H53v-3.9
		c0-1.2,0.8-2.3,2-2.7l3.5-1.2l1.8,5.3l3.7-3.1l3.7,3.1l1.8-5.3L73,40.8z M68.4,39.3L67.2,43l-2.3-2l2.2-2.2L68.4,39.3z M64,36.4
		c-2.9,0-5.2-2.3-5.2-5.2v-5c1,0.2,2.8,0.4,5.2,0.4c2.4,0,4.2-0.2,5.2-0.4v5.1C69.2,34.1,66.8,36.4,64,36.4z M68.3,35.9
		c0.4-0.4,0.7-0.7,1-1.2L68.3,35.9z"/>
</g>
<g>
	<path fill="#F0BC5E" d="M95.3,96.4L92.4,94l-2.9,2.3l1.2,1.2l-0.6,3.4h4.6l-0.6-3.4L95.3,96.4z"/>
	<path fill="#F0BC5E" d="M93.1,69.8c-2.2,0-4.1,0.8-5.6,2.3l-0.6,0.6c-1.8,0.4-3.2,2.2-3.2,4.1v6.3h0.6c0-1.3,1-2.3,2.3-2.3v-2.3
		c0,0,2.3,0.6,5.8,0.6c3.5,0,5.8-0.6,5.8-0.6v2.3c1.3,0,2.3,1,2.3,2.3h0.6v-5.3C101.1,73.4,97.5,69.8,93.1,69.8z"/>
	<path fill="#A0A0A0" d="M90.1,81.4c0,0.3-0.2,0.6-0.6,0.6S89,81.7,89,81.4s0.2-0.6,0.6-0.6C89.8,80.8,90.1,81,90.1,81.4z"/>
	<path fill="#A0A0A0" d="M95.9,81.4c0,0.3-0.2,0.6-0.6,0.6s-0.6-0.2-0.6-0.6s0.2-0.6,0.6-0.6C95.7,80.8,95.9,81,95.9,81.4z"/>
	<path fill="#A0A0A0" d="M92.4,86.6c-0.6,0-1.2-0.5-1.2-1.2h-1.2c0,1.3,1,2.3,2.3,2.3c1.3,0,2.3-1,2.3-2.3h-1.2
		C93.6,86,93.1,86.6,92.4,86.6z"/>
	<path fill="#B7B7B7" d="M98.3,86.6c0.1-0.2,0.1-0.4,0.2-0.6c1.4-0.2,2.6-1.4,2.6-2.9c0-1.4-1-2.6-2.3-2.8v-2.6l-0.7,0.2
		c0,0-2.3,0.6-5.7,0.6s-5.7-0.6-5.7-0.6L86,77.7v2.5c-1.3,0.2-2.3,1.4-2.3,2.8c0,1.5,1.1,2.7,2.6,2.9c0.4,1.5,1.4,2.7,2.6,3.6v1.2
		l-5.9,2c-1.7,0.6-2.7,2.1-2.7,3.9v5h24.3v-5c0-1.7-1.1-3.3-2.7-3.9l-5.9-2v-1l0,0c1-0.9,2.1-2.2,2.3-2.8 M98.8,84.2v-2.7
		c0.7,0.2,1.2,0.9,1.2,1.7c0,0.7-0.5,1.4-1.2,1.7C98.8,84.5,98.8,84.4,98.8,84.2z M84.9,83.1c0-0.7,0.5-1.4,1.2-1.7v2.7
		c0,0.2,0,0.3,0,0.5C85.4,84.5,84.9,83.9,84.9,83.1z M89.4,91.8l2.2,2.2l-2.3,2l-1.2-3.7L89.4,91.8z M90.1,90.9v-0.8
		c0.7,0.3,1.5,0.4,2.3,0.4c0.8,0,1.6-0.2,2.3-0.4v0.8l-2.3,2.3L90.1,90.9z M101.4,93.8c1.2,0.4,2,1.5,2,2.7v3.9H81.4v-3.9
		c0-1.2,0.8-2.3,2-2.7l3.5-1.2l1.8,5.3l3.7-3.1l3.7,3.1l1.8-5.3L101.4,93.8z M96.8,92.3L95.6,96l-2.3-2l2.2-2.2L96.8,92.3z
		 M92.4,89.4c-2.9,0-5.2-2.3-5.2-5.2v-5c1,0.2,2.8,0.4,5.2,0.4c2.4,0,4.2-0.2,5.2-0.4v5.1C97.6,87.1,95.3,89.4,92.4,89.4z
		 M96.7,88.9c0.4-0.4,0.7-0.7,1-1.2L96.7,88.9z"/>
</g>
<g>
	<path fill="#F0BC5E" d="M38.6,96.4L35.7,94l-2.9,2.3l1.2,1.2l-0.6,3.4H38l-0.6-3.4L38.6,96.4z"/>
	<path fill="#F0BC5E" d="M36.5,69.8c-2.2,0-4.1,0.8-5.6,2.3l-0.6,0.6c-1.8,0.4-3.2,2.2-3.2,4.1v6.3h0.6c0-1.3,1-2.3,2.3-2.3v-2.3
		c0,0,2.3,0.6,5.8,0.6c3.5,0,5.8-0.6,5.8-0.6v2.3c1.3,0,2.3,1,2.3,2.3h0.6v-5.3C44.4,73.4,40.9,69.8,36.5,69.8z"/>
	<path fill="#A0A0A0" d="M33.5,81.4c0,0.3-0.2,0.6-0.6,0.6c-0.3,0-0.6-0.2-0.6-0.6s0.2-0.6,0.6-0.6C33.1,80.8,33.5,81,33.5,81.4z"/>
	<path fill="#A0A0A0" d="M39.2,81.4c0,0.3-0.2,0.6-0.6,0.6c-0.3,0-0.6-0.2-0.6-0.6s0.2-0.6,0.6-0.6C39,80.8,39.2,81,39.2,81.4z"/>
	<path fill="#A0A0A0" d="M35.7,86.6c-0.6,0-1.2-0.5-1.2-1.2h-1.2c0,1.3,1,2.3,2.3,2.3c1.3,0,2.3-1,2.3-2.3h-1.2
		C36.9,86,36.4,86.6,35.7,86.6z"/>
	<path fill="#B7B7B7" d="M41.7,86.6c0.1-0.2,0.1-0.4,0.2-0.6c1.4-0.2,2.6-1.4,2.6-2.9c0-1.4-1-2.6-2.3-2.8v-2.6l-0.7,0.2
		c0,0-2.3,0.6-5.7,0.6s-5.7-0.6-5.7-0.6l-0.8-0.2v2.5c-1.3,0.2-2.3,1.4-2.3,2.8c0,1.5,1.1,2.7,2.6,2.9c0.4,1.5,1.4,2.7,2.6,3.6v1.2
		l-5.9,2c-1.7,0.6-2.7,2.1-2.7,3.9v5h24.3v-5c0-1.7-1.1-3.3-2.7-3.9l-5.9-2v-1l0,0c1-0.9,2.1-2.2,2.3-2.8 M42.1,84.2v-2.7
		c0.7,0.2,1.2,0.9,1.2,1.7c0,0.7-0.5,1.4-1.2,1.7C42.1,84.5,42.1,84.4,42.1,84.2z M28.2,83.1c0-0.7,0.5-1.4,1.2-1.7v2.7
		c0,0.2,0,0.3,0,0.5C28.8,84.5,28.2,83.9,28.2,83.1z M32.7,91.8l2.2,2.2l-2.3,2l-1.2-3.7L32.7,91.8z M33.5,90.9v-0.8
		c0.7,0.3,1.5,0.4,2.3,0.4c0.8,0,1.6-0.2,2.3-0.4v0.8l-2.3,2.3L33.5,90.9z M44.7,93.8c1.2,0.4,2,1.5,2,2.7v3.9H24.8v-3.9
		c0-1.2,0.8-2.3,2-2.7l3.5-1.2l1.8,5.3l3.7-3.1l3.7,3.1l1.8-5.3L44.7,93.8z M40.2,92.3L38.9,96l-2.3-2l2.2-2.2L40.2,92.3z
		 M35.7,89.4c-2.9,0-5.2-2.3-5.2-5.2v-5c1,0.2,2.8,0.4,5.2,0.4c2.4,0,4.2-0.2,5.2-0.4v5.1C41,87.1,38.6,89.4,35.7,89.4z M40.1,88.9
		c0.4-0.4,0.7-0.7,1-1.2L40.1,88.9z"/>
</g>
</svg>
